P3
2 2
255
200   0   0
  0 200   0
200 200   0
200 200 200
