P3
50 52
255
15 10 12
45 76 60
94 161 129
103 172 136
119 183 143
107 167 124
104 163 113
69 96 66
101 159 134
116 182 153
120 189 156
93 123 89
107 147 118
130 199 178
138 194 169
125 197 166
119 193 169
111 184 161
113 185 160
116 182 149
135 204 159
97 120 86
0 0 0
95 149 123
128 188 154
134 191 162
111 184 153
78 109 90
15 5 9
37 48 43
52 68 63
85 110 100
91 111 100
66 80 73
59 61 59
48 53 51
95 141 121
118 180 158
37 35 36
34 48 44
134 180 159
149 204 188
173 221 203
162 215 198
143 199 185
110 135 121
72 91 79
83 125 107
140 180 153
156 202 185
34 57 48
94 168 139
117 183 144
103 158 120
106 160 128
115 173 135
125 173 124
111 168 126
110 177 149
118 181 148
110 176 144
119 179 143
130 190 158
74 112 95
13 9 13
56 78 64
93 150 130
107 172 152
119 187 165
125 193 169
114 164 128
84 98 65
89 124 99
141 207 175
135 204 182
135 197 175
104 175 151
73 149 134
60 117 102
63 102 89
63 79 63
95 110 97
101 129 118
76 91 82
61 78 72
70 93 87
112 163 143
124 183 166
65 109 103
134 188 167
144 195 175
115 146 137
88 113 110
69 93 86
85 112 98
90 149 141
118 187 167
125 192 168
120 188 166
154 203 176
70 106 85
118 185 148
80 104 78
8 0 4
69 103 92
112 189 167
100 172 149
108 174 148
121 184 155
128 195 162
123 188 156
112 176 150
125 193 170
110 157 129
74 78 56
56 75 65
95 136 109
119 163 130
105 144 113
67 84 64
87 119 91
136 185 147
155 220 186
115 163 140
66 105 92
122 189 167
125 195 177
104 188 173
103 188 173
95 190 177
98 182 160
135 196 166
150 210 189
152 215 196
127 185 167
77 107 101
59 82 78
109 158 149
145 212 196
126 166 151
25 18 20
0 0 0
24 32 32
99 137 123
130 194 177
123 201 186
131 201 183
124 197 178
130 204 186
144 197 170
102 151 110
114 181 139
30 30 24
37 37 33
105 173 147
96 171 147
97 174 149
115 182 151
112 174 141
75 120 102
27 40 37
16 12 16
39 54 51
121 184 156
129 199 159
146 212 174
91 138 114
31 48 44
45 72 62
122 148 100
126 197 167
121 199 178
123 182 167
14 7 10
30 49 49
125 201 183
91 136 113
35 47 44
46 52 48
68 100 90
106 164 143
107 172 152
84 141 127
70 102 92
17 16 17
3 0 0
0 0 0
15 17 18
135 184 165
93 144 135
39 65 63
92 145 135
138 194 180
112 165 156
89 132 125
86 118 108
87 124 117
73 110 102
59 79 73
32 42 39
103 167 132
116 184 150
76 135 114
107 166 135
118 193 157
95 169 141
95 143 108
96 108 65
107 127 82
93 99 58
59 62 39
27 23 18
20 15 9
117 168 134
97 151 124
13 25 23
51 35 29
153 103 65
111 69 48
34 37 33
109 165 135
103 165 140
48 70 58
75 97 68
122 195 166
137 210 176
103 130 105
45 82 70
75 123 104
56 94 84
47 67 61
31 28 29
26 31 31
51 80 74
84 137 126
100 158 147
91 150 141
97 151 139
119 179 163
133 195 183
121 200 187
92 123 116
27 25 30
3 0 2
15 8 11
60 79 72
92 131 122
113 150 139
85 119 110
80 98 86
107 169 141
110 172 144
118 191 162
89 153 125
40 60 49
52 66 54
84 121 92
102 154 113
122 185 139
130 197 146
126 190 138
123 181 137
124 183 139
125 199 160
39 57 53
80 48 36
246 163 99
248 160 100
240 163 103
70 56 41
86 136 105
100 131 93
98 153 117
132 208 160
94 151 119
87 128 104
128 197 170
118 198 176
103 190 181
106 194 186
92 175 167
63 121 112
108 157 143
136 204 186
126 195 178
116 191 181
124 204 192
133 199 178
108 177 163
116 178 168
127 189 176
31 41 42
3 0 3
54 72 66
119 172 158
142 209 198
139 207 196
151 210 199
159 215 198
147 211 193
40 58 51
94 163 139
132 189 159
55 76 55
39 44 33
103 165 137
107 182 161
102 174 144
95 153 122
56 79 64
99 156 128
106 164 133
66 98 82
92 136 110
51 93 75
89 59 40
226 144 88
161 99 64
195 132 82
100 69 45
77 114 87
125 194 147
94 180 146
64 108 86
6 0 0
36 49 42
117 194 161
56 81 65
25 28 30
74 133 123
97 185 176
90 177 171
91 163 152
132 191 173
135 204 190
116 189 177
66 113 109
20 26 28
63 115 111
106 185 173
127 190 179
103 171 160
102 161 149
144 200 182
151 207 192
122 195 182
117 195 180
121 191 176
138 199 186
144 200 181
90 133 106
115 183 155
118 176 147
121 169 132
100 159 126
116 182 156
137 196 165
145 215 176
103 139 110
0 0 0
34 41 34
20 21 18
0 0 0
43 42 31
65 99 77
64 48 37
202 143 95
203 126 77
242 157 93
103 68 41
12 12 19
110 169 134
89 143 103
46 64 47
72 114 98
104 179 155
106 183 159
71 127 106
21 33 34
11 9 10
50 83 80
94 171 164
87 165 157
100 158 146
75 123 117
29 35 36
0 0 0
2 0 6
78 141 129
111 187 172
124 185 173
127 196 182
118 177 161
35 34 33
31 29 32
49 69 68
75 118 110
100 162 147
127 189 174
137 194 175
112 179 147
85 142 120
86 155 130
129 180 141
41 46 30
13 13 15
49 79 69
59 95 79
84 101 80
37 27 18
1 0 4
115 79 44
116 118 80
87 153 113
14 21 18
49 27 26
218 147 93
172 114 75
247 160 97
63 39 27
7 12 15
110 172 136
100 175 147
92 179 157
108 194 168
97 162 137
102 174 162
114 197 181
118 196 175
84 165 147
49 77 70
42 48 44
65 92 82
51 73 66
41 59 53
43 64 62
57 94 88
99 163 152
114 183 167
114 186 169
104 183 172
125 187 172
121 185 163
83 130 113
54 78 71
23 33 33
11 5 10
16 13 16
27 30 32
38 48 45
35 47 40
4 0 2
67 108 95
119 187 158
113 157 124
75 111 84
77 122 101
41 65 55
75 114 92
109 140 108
5 6 10
93 60 43
180 183 128
98 166 122
63 100 74
6 17 19
133 103 73
194 123 77
216 141 90
70 57 45
52 76 65
72 129 114
75 148 135
95 178 157
88 158 130
40 63 53
110 178 162
87 127 109
126 195 180
118 198 185
88 172 150
96 143 123
113 175 156
97 179 166
113 194 177
123 207 190
121 195 181
48 60 58
83 132 123
122 182 167
107 172 158
112 165 153
72 96 89
129 193 167
97 137 123
98 141 124
105 171 153
65 120 113
58 85 79
44 52 49
26 26 26
51 71 61
99 162 135
118 185 157
135 192 163
99 176 146
105 181 159
100 177 147
102 177 144
190 146 94
159 81 38
70 48 34
82 84 61
32 23 13
79 111 82
91 134 108
187 163 114
231 142 84
219 142 92
213 164 110
75 87 95
40 76 112
50 79 101
60 101 107
40 55 49
49 85 76
135 219 198
88 123 108
60 100 90
121 204 186
99 181 158
126 204 182
123 200 185
99 182 166
90 160 147
66 118 111
33 49 48
43 87 85
104 172 160
32 33 36
58 93 87
117 177 162
11 3 9
96 127 110
92 140 123
20 15 18
81 119 111
117 198 184
114 195 180
114 189 174
109 166 133
115 194 157
115 182 148
77 126 107
125 175 147
88 160 131
79 149 133
90 168 144
105 175 142
191 119 66
156 92 52
84 53 33
37 30 25
42 63 84
44 69 103
99 97 98
234 152 90
230 145 91
239 155 92
195 131 85
45 78 111
61 94 129
86 108 140
65 92 125
49 73 97
49 86 92
110 168 150
145 199 177
54 60 51
30 44 41
56 100 91
51 87 79
30 69 66
34 53 51
41 61 57
58 98 89
72 145 132
118 205 189
60 97 92
0 0 0
85 142 131
147 216 201
35 50 53
28 25 22
135 196 168
81 138 127
11 11 15
72 128 120
111 188 171
108 182 171
118 193 156
95 150 124
35 42 37
36 44 32
106 161 130
105 169 136
24 30 24
34 44 46
86 141 117
195 134 76
180 85 33
138 90 55
30 21 16
28 48 72
49 86 121
47 71 95
170 117 84
244 158 94
248 165 98
139 114 94
35 80 122
35 75 109
45 80 116
69 94 127
58 88 123
45 83 120
72 69 82
195 54 38
196 42 31
162 12 9
152 4 1
132 8 3
65 0 0
48 71 61
97 167 148
86 171 152
99 174 154
99 164 146
19 17 21
70 96 89
118 194 173
143 204 191
91 132 128
5 2 6
121 158 141
110 196 178
91 137 115
41 51 45
99 180 172
101 182 173
68 104 85
45 55 47
84 121 101
82 126 115
66 100 112
71 115 121
57 88 66
22 23 15
28 39 39
137 132 97
208 108 43
177 102 52
107 74 49
31 27 30
37 68 95
35 76 110
92 95 106
228 150 92
236 151 88
79 91 103
34 79 120
22 70 105
26 72 110
42 76 115
29 73 110
52 83 116
55 83 108
129 46 40
231 24 15
213 48 32
214 29 18
230 23 15
168 62 38
89 175 146
85 162 139
86 156 135
104 177 152
54 80 69
74 110 97
134 210 181
141 197 168
136 190 177
116 184 171
35 44 42
111 144 130
128 192 168
120 197 166
76 94 80
56 96 95
105 198 188
50 70 60
104 146 117
75 114 131
41 76 117
36 73 115
52 81 114
62 102 125
66 123 106
82 150 123
98 154 127
102 83 66
204 102 42
188 111 58
25 18 16
30 57 84
38 76 108
40 70 95
169 126 97
179 128 89
36 76 118
31 75 114
21 71 112
26 74 113
55 85 121
60 64 84
22 69 105
37 73 109
41 68 100
150 22 17
218 19 9
198 21 12
207 24 14
167 86 62
92 170 144
99 168 143
112 191 164
99 147 124
88 126 110
120 195 172
90 128 110
118 160 136
132 201 182
130 209 195
62 96 94
88 111 96
156 211 179
110 181 156
108 165 150
33 36 33
79 141 132
94 149 121
62 87 107
37 76 122
42 81 120
39 76 115
43 80 112
51 76 108
53 86 112
57 121 101
91 141 113
43 71 98
70 67 72
190 98 48
97 57 34
22 24 30
54 76 106
35 74 118
53 75 97
78 97 121
41 74 107
16 49 75
30 54 77
42 76 109
69 97 129
163 49 43
66 63 91
16 70 115
30 73 116
44 55 76
183 13 4
218 47 33
209 15 8
177 73 57
99 178 156
92 165 139
62 119 106
78 117 109
137 211 187
46 65 62
0 0 0
1 5 15
54 67 60
133 180 163
66 108 107
24 29 24
122 180 152
119 189 163
142 204 181
45 46 42
21 30 29
55 81 99
35 73 117
43 80 116
64 86 113
60 87 119
21 68 114
48 75 101
65 87 116
55 87 89
77 124 93
59 86 105
47 77 115
88 82 82
182 116 68
27 25 24
78 71 48
168 135 34
128 105 32
40 63 84
26 63 94
18 71 109
15 61 97
36 60 82
57 90 117
168 35 28
174 17 14
28 68 108
30 73 117
26 75 117
112 43 48
220 42 24
207 21 12
200 69 43
161 211 142
129 165 127
107 112 81
139 161 118
65 91 80
118 61 29
195 97 43
131 65 34
51 17 10
99 98 79
138 154 132
32 33 33
66 87 80
115 158 133
115 150 126
59 68 64
52 60 58
50 79 114
47 81 118
60 89 122
53 87 123
48 86 126
37 80 125
46 82 116
71 88 105
67 88 107
29 36 32
34 62 85
65 93 125
57 69 80
46 66 94
122 117 74
183 127 4
221 150 3
230 158 0
166 117 2
25 55 80
20 76 120
39 82 124
55 68 83
57 79 105
166 63 55
227 23 5
148 45 38
22 74 115
30 74 121
48 66 96
188 8 3
203 21 13
194 56 21
230 101 24
234 127 71
254 137 71
153 91 33
14 8 7
157 84 43
220 109 50
234 113 47
160 76 36
29 32 32
216 181 135
241 197 134
236 193 145
230 186 128
224 184 109
235 201 129
234 203 132
51 83 116
66 90 117
70 96 125
43 80 116
44 85 129
58 93 133
46 84 124
46 81 112
66 90 114
32 37 42
22 38 54
68 98 129
42 55 72
99 91 58
184 142 30
189 131 11
166 108 9
204 133 3
217 154 2
63 65 49
15 44 74
37 53 66
54 65 81
85 103 123
162 64 57
218 37 16
212 23 3
128 34 39
46 81 120
44 86 128
152 55 53
210 23 6
178 55 35
191 127 77
204 78 21
209 33 0
181 59 8
63 36 27
203 106 58
210 114 62
169 89 43
158 67 21
37 21 16
191 55 24
222 62 33
220 70 34
218 63 19
216 50 19
221 64 34
224 82 40
43 79 114
64 91 123
81 100 118
64 95 127
48 86 128
55 87 123
36 79 122
33 71 104
56 74 91
58 83 107
47 70 80
43 69 89
43 49 55
181 121 11
206 151 1
195 144 15
189 129 9
211 133 6
219 138 0
108 88 31
11 48 79
18 58 85
61 70 84
100 111 129
151 51 52
220 34 17
218 39 24
183 36 26
60 82 114
45 93 134
113 65 69
213 16 4
179 71 44
114 164 118
103 149 110
114 156 110
141 109 65
64 37 20
208 112 56
204 108 54
238 110 37
174 71 15
37 10 18
203 20 11
197 24 9
207 37 14
210 45 12
197 20 4
209 29 17
208 32 20
52 87 121
80 103 126
70 96 116
35 82 124
55 92 132
59 95 130
61 93 122
53 79 102
51 89 120
52 88 121
47 79 106
43 71 88
47 56 62
159 108 14
228 161 4
181 126 9
183 127 20
136 110 47
151 107 28
194 123 3
101 90 69
25 57 95
59 73 94
95 106 123
135 60 60
225 43 20
184 52 36
63 77 105
37 90 133
73 85 101
171 22 12
219 26 18
176 65 43
85 129 104
78 137 121
75 129 114
70 151 135
125 66 43
192 73 28
178 106 51
209 98 37
61 27 17
81 26 15
218 55 7
211 64 7
213 58 6
221 84 11
217 79 8
204 40 0
212 39 3
60 88 116
69 94 119
50 90 124
39 84 129
52 90 131
63 101 137
62 87 111
16 63 103
22 73 115
33 76 111
34 78 110
28 66 93
44 70 87
132 76 10
163 105 7
210 136 1
146 108 34
111 115 91
152 154 116
193 140 38
201 126 0
64 69 66
31 60 94
92 121 144
141 63 61
191 47 26
65 83 112
33 88 132
75 62 85
178 15 6
213 30 18
208 35 21
176 81 58
107 136 113
83 103 81
81 94 64
81 102 77
167 76 32
207 108 52
204 126 60
194 99 42
177 59 20
195 50 12
210 51 11
216 50 10
217 42 7
219 64 11
210 53 6
209 41 4
214 36 9
67 92 118
71 93 113
46 86 123
47 88 133
55 92 134
64 95 127
41 77 106
8 64 111
45 86 125
47 83 113
24 70 105
45 82 109
33 67 92
89 80 71
133 70 12
148 94 7
153 106 21
127 127 99
164 159 115
183 139 50
211 133 16
189 118 47
203 144 98
196 158 117
182 112 71
225 150 100
113 125 122
115 50 62
206 12 3
214 36 18
201 39 24
203 5 0
181 76 45
150 134 54
192 148 16
200 144 2
200 128 5
200 156 10
181 135 50
234 109 45
217 99 38
207 153 27
197 129 7
197 118 8
190 70 9
200 54 20
213 30 17
205 26 1
208 25 4
209 14 7
63 88 114
55 85 112
44 83 122
53 89 134
63 94 136
54 84 115
13 59 94
17 71 117
42 80 119
23 70 108
22 71 108
64 95 123
47 79 105
39 70 99
102 82 62
169 94 9
165 107 6
166 122 37
147 122 62
135 88 23
205 148 86
205 141 83
228 161 90
255 194 123
248 187 128
221 157 97
205 61 29
215 24 7
201 25 10
210 44 29
207 35 17
207 34 18
197 72 7
224 164 4
227 155 0
216 143 4
214 145 3
210 141 2
181 128 13
190 121 33
188 117 23
214 154 9
211 136 4
199 125 3
201 133 4
194 122 8
197 88 16
204 84 22
211 52 8
215 54 13
68 96 120
46 83 115
42 83 125
64 98 137
45 86 129
41 79 112
22 65 100
39 81 122
36 77 118
12 67 111
17 72 115
40 81 118
44 83 117
49 80 109
48 82 108
132 77 23
187 105 12
205 136 0
160 111 32
183 136 82
180 126 71
168 132 89
223 178 122
226 169 106
199 150 67
88 86 79
150 32 37
226 21 9
205 32 21
203 15 8
211 38 23
196 35 11
202 128 5
222 149 4
212 142 6
209 145 4
206 142 3
208 141 5
198 124 2
199 133 3
218 152 5
222 142 4
209 131 4
191 113 3
204 128 7
202 121 2
217 156 5
186 100 10
193 0 5
208 13 4
68 100 126
33 80 118
49 92 131
59 100 140
42 86 128
34 74 106
39 79 113
50 88 129
30 76 119
16 69 110
40 84 123
28 77 120
34 76 116
39 80 118
32 80 119
96 84 62
193 87 3
204 144 14
209 146 5
183 135 24
194 143 35
204 150 37
213 160 23
219 169 8
228 164 0
153 130 59
51 82 119
189 30 21
210 24 14
202 40 22
207 24 13
199 64 13
215 154 5
213 141 4
206 143 4
216 158 4
207 140 4
199 129 5
188 118 4
201 126 5
199 127 5
206 132 4
203 130 4
204 127 3
194 129 8
187 114 5
217 140 4
212 145 4
182 66 9
209 28 7
51 86 122
56 88 118
45 86 125
31 83 130
33 80 123
42 78 108
38 78 115
53 91 131
48 86 122
18 68 110
34 75 115
47 84 124
48 83 121
30 73 111
23 73 114
66 80 74
199 89 1
200 111 15
224 166 10
241 178 3
231 170 0
235 172 0
237 180 2
228 164 8
218 150 4
168 132 60
40 87 125
122 40 41
214 24 14
204 31 18
214 41 26
210 106 21
208 142 3
213 139 5
210 156 22
191 138 10
197 123 5
200 128 3
190 121 5
183 121 10
179 118 12
206 128 4
211 141 6
221 155 4
171 120 8
171 110 6
214 129 3
211 128 4
195 114 8
186 52 8
90 96 82
169 146 62
42 76 118
59 86 111
52 89 126
42 71 96
34 74 112
60 92 126
41 79 113
22 67 107
34 75 112
54 76 96
39 77 112
43 78 109
43 80 111
46 79 94
183 101 18
213 89 6
185 124 15
240 188 6
234 175 3
231 174 5
224 161 4
218 148 7
180 120 17
187 94 29
68 100 126
112 35 44
221 21 5
204 28 17
206 26 15
195 94 12
208 138 3
224 158 1
138 140 71
174 140 26
178 112 3
203 127 3
179 111 10
179 116 9
181 121 10
200 123 2
209 145 6
204 161 12
175 81 14
179 107 12
216 138 3
207 124 3
200 122 4
175 64 9
202 173 31
208 168 17
96 94 69
155 129 47
69 87 101
119 113 71
35 75 120
57 85 113
38 75 110
39 75 109
35 79 116
51 81 108
64 78 90
37 84 125
24 74 113
45 88 122
121 97 60
230 95 0
193 85 7
191 136 9
208 164 14
209 146 14
193 116 6
176 102 14
221 94 0
190 89 20
55 99 134
150 37 44
215 25 1
200 38 17
202 14 10
190 91 7
225 168 5
223 162 0
90 126 87
149 129 39
173 109 4
150 96 12
174 111 11
198 118 1
187 117 5
170 109 9
181 129 14
191 147 13
172 41 15
174 97 20
213 136 4
196 112 2
209 138 4
182 111 10
186 71 10
181 152 53
186 169 72
217 178 27
140 134 59
144 134 63
31 68 115
40 73 104
42 79 113
52 84 114
35 76 111
50 85 120
65 79 95
48 75 97
19 75 119
22 74 114
45 78 101
149 87 23
235 90 0
209 87 1
195 89 3
221 100 5
228 95 0
239 100 0
211 102 17
89 95 103
46 81 117
177 10 9
222 56 29
210 57 27
197 23 10
209 121 15
225 170 4
230 170 5
94 127 90
95 108 55
206 133 0
186 113 4
202 127 5
205 128 5
203 124 4
207 127 5
219 151 5
208 161 4
191 40 9
186 60 21
176 104 8
202 117 2
204 131 3
203 130 9
215 93 49
203 95 34
187 109 41
200 142 68
196 87 45
88 64 75
29 74 111
42 74 108
42 76 110
31 75 114
35 80 120
41 82 121
48 80 110
58 57 61
38 70 96
15 72 115
31 74 112
47 66 73
123 75 29
180 96 25
185 104 35
155 94 29
120 70 26
115 83 52
70 89 107
31 86 130
100 56 76
204 3 0
203 19 11
207 32 16
209 31 15
212 127 14
221 169 4
229 165 1
92 119 67
70 106 70
194 131 4
187 112 2
189 114 2
193 118 4
202 127 5
202 122 3
211 138 4
201 150 7
175 59 6
203 65 5
157 70 10
196 124 6
208 128 3
215 143 4
233 174 105
221 125 53
233 111 26
224 106 34
200 20 4
78 58 80
50 85 114
59 84 112
48 79 112
35 76 116
28 73 115
32 77 117
40 85 118
89 54 60
163 27 23
54 77 105
18 72 112
41 76 114
37 76 105
52 86 100
51 82 105
33 71 106
40 81 117
64 95 128
58 81 111
42 84 115
156 26 33
207 0 0
204 32 15
203 34 17
202 12 10
208 124 8
219 163 4
226 162 4
89 110 52
55 93 71
191 143 18
193 118 1
195 119 3
195 117 2
201 124 4
203 125 5
205 135 5
157 104 13
189 39 14
214 43 7
192 40 10
175 107 12
211 132 2
220 152 6
164 60 36
169 25 17
179 60 35
189 78 31
161 26 17
47 73 98
55 74 97
55 80 108
53 86 116
35 74 111
25 72 112
35 77 115
43 88 124
92 56 63
211 9 0
185 13 12
78 52 68
25 77 108
34 77 115
31 69 109
29 74 110
29 77 114
30 76 113
62 88 117
46 88 119
69 67 87
200 8 5
197 11 5
202 17 8
201 23 8
203 33 19
203 128 31
210 144 2
218 153 3
112 126 61
55 91 75
160 113 14
210 131 1
187 116 5
184 111 3
173 105 4
177 105 6
152 93 6
118 72 6
180 81 10
189 70 10
192 52 20
192 84 13
210 142 4
226 166 4
195 0 0
202 19 12
190 18 10
202 23 0
159 54 49
40 75 103
36 61 91
24 60 93
27 68 103
28 67 101
14 65 102
26 72 109
60 99 128
125 49 56
210 11 4
204 16 10
203 4 0
126 30 34
46 66 88
28 82 111
23 78 112
18 74 113
29 86 125
49 88 112
89 72 86
177 11 10
211 7 3
201 7 8
197 13 2
210 49 22
209 87 65
190 119 27
225 164 7
213 152 0
107 115 60
80 116 86
168 119 12
193 116 2
175 113 5
198 132 7
198 125 5
214 134 5
213 127 0
205 123 1
207 140 2
212 153 5
203 144 6
195 123 4
225 162 9
232 175 7
213 58 34
201 20 12
199 26 15
216 31 16
135 58 66
44 79 108
45 66 94
13 55 90
28 69 104
26 65 97
17 63 97
28 71 104
67 100 124
134 48 45
213 19 9
211 49 37
207 17 12
213 0 0
187 10 8
135 34 35
85 42 55
81 53 70
108 55 66
153 37 36
197 6 3
206 3 1
200 19 8
202 22 9
215 59 40
209 90 56
227 195 159
203 158 49
216 145 0
209 157 4
99 113 72
80 114 75
178 130 9
214 112 24
221 131 32
170 122 15
153 107 5
155 106 10
179 118 10
201 130 12
202 124 6
216 139 3
223 151 0
219 152 2
220 149 6
218 149 5
211 56 14
210 43 19
198 38 21
212 69 44
116 88 95
39 71 102
52 69 94
35 71 108
29 67 102
23 66 101
15 60 94
28 67 97
60 92 115
149 77 58
218 31 14
203 4 1
198 29 14
201 12 9
204 2 0
211 0 0
213 9 0
211 7 0
209 0 0
210 1 0
203 7 3
202 33 11
196 6 0
213 96 68
221 94 65
226 180 145
235 219 186
210 158 44
211 143 0
197 147 8
64 59 39
52 54 38
180 96 15
232 114 32
218 111 41
134 92 17
116 84 14
125 88 17
174 122 15
207 147 19
192 131 6
194 142 23
199 143 25
203 131 11
199 119 2
195 105 7
237 199 154
222 124 88
222 122 87
217 172 137
83 97 113
62 78 107
52 74 100
46 77 112
26 66 100
16 60 93
28 62 92
28 69 99
68 87 104
170 123 97
214 45 18
198 38 17
201 0 0
210 17 12
217 60 44
202 15 1
218 117 93
211 70 48
205 39 18
202 13 5
198 26 14
207 59 35
201 27 7
211 131 107
226 163 129
236 233 208
238 233 202
215 169 51
224 160 0
167 122 12
30 25 28
116 63 26
225 106 28
232 109 22
175 88 30
92 72 26
180 111 13
220 147 4
221 154 2
214 138 4
214 145 3
211 144 9
180 129 27
149 73 20
217 73 16
215 88 23
247 250 223
235 223 193
238 220 181
194 196 174
60 79 106
71 91 118
50 75 107
37 69 104
30 66 101
21 61 92
23 61 92
29 70 99
70 86 98
168 149 119
219 112 69
200 63 26
216 69 43
205 28 8
216 72 50
229 133 102
235 201 178
226 180 149
220 145 119
207 64 42
197 54 25
193 61 35
208 101 76
225 155 133
241 235 210
250 241 215
166 160 141
141 109 23
243 175 6
105 77 14
27 20 22
198 97 35
226 107 28
209 105 32
128 85 26
188 124 6
226 153 8
210 145 5
211 137 3
213 141 6
209 141 6
218 155 2
219 152 1
126 85 20
142 41 21
219 66 6
241 242 212
229 234 207
242 246 207
163 166 149
64 80 108
58 85 112
42 71 103
29 68 104
32 69 101
25 61 90
19 58 89
36 76 104
69 87 99
187 180 148
240 213 177
219 134 96
231 182 146
218 98 51
223 161 129
240 248 227
239 235 214
232 234 214
228 227 210
234 207 178
216 139 95
210 110 77
230 208 185
237 235 207
247 255 233
236 232 197
46 40 37
121 90 13
209 149 16
53 45 27
59 41 27
203 98 28
193 98 32
149 87 27
163 101 8
192 120 5
210 147 6
217 147 6
209 141 4
213 143 4
211 139 4
207 136 4
229 167 4
141 96 9
34 21 31
178 81 20
203 78 59
212 65 50
224 55 43
110 68 71
64 94 117
59 79 105
34 64 99
37 71 103
23 63 95
14 55 88
15 58 87
28 70 106
69 89 95
198 196 153
235 231 199
232 229 198
236 200 172
230 174 135
243 254 225
240 235 211
245 235 217
140 181 154
118 174 140
202 209 188
190 191 166
208 150 112
224 166 140
232 156 131
234 136 107
168 113 84
21 25 26
121 84 32
230 133 48
71 45 28
31 27 22
188 95 29
179 90 26
184 70 8
190 60 3
177 60 5
171 82 8
202 129 8
224 162 7
214 148 5
207 127 4
208 134 5
228 162 5
175 123 17
47 42 40
63 53 26
87 88 66
113 79 57
134 73 50
58 54 63
57 85 111
56 75 100
41 71 102
27 64 96
26 65 88
29 65 84
11 55 90
105 120 84
89 85 80
194 36 21
210 46 29
207 65 37
208 55 36
217 63 38
208 61 37
216 57 33
169 102 75
126 185 155
198 214 186
222 227 210
220 223 205
142 134 96
170 75 38
163 41 19
172 41 16
86 26 10
37 42 38
170 90 46
243 120 48
148 81 37
0 0 10
146 85 34
193 91 17
210 71 0
211 68 3
214 69 2
204 61 1
179 76 6
191 132 15
218 156 7
218 159 9
205 133 4
230 172 3
157 120 24
24 17 25
26 24 22
55 98 80
56 105 86
105 150 116
56 85 95
50 76 103
57 80 105
58 82 106
7 50 90
90 106 68
146 137 37
14 54 90
226 198 21
98 88 49
99 42 37
123 69 46
131 92 60
116 79 62
138 96 71
116 93 67
126 108 84
179 183 160
229 233 216
237 235 215
197 201 178
230 227 205
165 178 146
79 144 117
102 170 143
104 183 154
44 78 66
52 30 21
230 117 51
204 110 55
148 88 47
25 22 21
111 58 21
192 89 20
206 76 4
207 73 4
206 73 2
213 74 2
212 65 1
163 62 5
183 126 6
229 171 16
211 148 6
227 171 4
88 62 15
4 0 10
37 33 23
78 119 95
77 122 97
103 128 99
50 70 88
67 88 113
43 75 109
129 123 67
21 51 80
125 130 65
242 207 13
131 132 70
223 189 15
85 91 50
48 108 85
87 150 117
115 164 131
88 141 114
100 163 127
153 206 173
210 235 215
238 241 221
223 225 201
220 223 200
214 216 192
214 215 187
234 227 197
116 156 123
89 158 130
121 168 139
53 85 73
81 48 28
233 135 73
171 96 53
114 78 49
34 21 18
153 54 5
205 79 6
181 71 5
210 79 2
206 72 3
209 75 3
207 69 2
212 66 2
170 66 8
198 136 12
223 152 4
182 113 7
46 31 19
33 28 29
30 27 23
101 161 133
79 130 102
88 113 89
48 70 93
62 90 124
35 72 112
179 158 35
113 113 59
135 139 57
198 169 25
101 99 73
37 64 85
59 83 76
93 141 99
87 136 107
102 148 116
113 156 125
194 204 176
227 223 201
221 218 195
237 235 212
216 219 194
216 218 196
212 214 188
195 197 167
233 232 208
214 211 178
72 132 102
96 158 130
90 131 111
80 60 40
179 112 61
185 106 58
80 54 34
44 32 28
166 64 10
217 87 1
185 65 4
188 75 5
208 78 4
215 82 3
211 81 4
201 69 2
208 67 5
157 75 18
195 125 5
133 78 18
14 10 19
43 36 30
53 50 37
67 103 87
63 100 76
82 100 87
58 80 98
95 111 88
45 76 110
189 167 30
145 117 33
172 124 82
199 129 73
53 68 81
25 69 105
75 106 87
100 155 115
89 147 118
104 160 129
124 173 139
226 229 205
219 220 192
203 207 175
224 226 201
223 225 201
201 204 175
209 210 180
221 222 194
207 208 181
244 237 207
147 168 131
65 140 114
117 182 151
96 113 87
136 83 48
171 107 66
117 82 50
46 45 39
130 50 14
212 76 2
202 72 2
195 69 6
178 68 4
202 84 4
205 79 3
202 73 4
207 70 4
198 63 3
156 76 12
75 52 25
12 8 13
32 25 21
32 30 26
59 84 68
59 72 54
73 85 82
51 76 103
193 172 25
139 137 78
83 91 69
164 99 57
236 146 75
129 95 64
55 76 93
30 64 89
79 99 76
79 112 82
73 111 85
84 122 98
83 124 99
151 182 153
222 229 205
199 201 168
208 211 183
237 239 216
203 206 175
208 208 179
212 213 184
190 194 164
224 226 200
214 212 181
83 137 108
79 154 127
95 162 131
73 79 59
139 88 57
61 45 33
31 30 30
57 22 12
203 67 2
195 66 3
205 74 2
199 68 3
160 58 4
185 70 3
213 77 2
202 68 3
205 69 2
202 73 5
79 42 23
32 35 32
38 31 26
26 17 15
78 134 103
82 125 103
113 113 74
66 85 96
193 177 48
145 133 51
32 62 100
196 125 68
190 128 76
64 82 95
41 72 94
21 51 73
74 101 70
87 132 96
75 119 92
81 123 96
83 125 98
116 146 107
195 173 134
221 221 189
198 199 164
214 216 188
226 227 197
213 215 187
208 211 183
219 220 192
230 231 204
218 212 181
136 154 116
70 142 115
73 145 121
77 146 122
89 96 78
21 7 8
27 25 24
6 7 15
128 42 11
214 79 3
194 71 2
202 72 3
192 64 3
166 60 6
195 70 3
207 70 4
197 65 3
210 79 3
187 74 7
57 39 27
22 27 31
98 49 19
145 55 26
143 72 69
143 134 55
185 166 51
104 108 92
49 71 90
61 84 101
207 138 81
208 129 67
89 86 86
36 71 98
17 50 68
93 110 71
116 126 80
109 122 82
109 136 99
141 137 101
182 56 17
173 26 0
207 126 85
198 204 167
192 193 164
235 236 209
226 228 200
228 228 200
223 221 188
218 218 188
224 226 205
192 192 162
89 144 112
72 144 120
65 136 113
85 157 131
70 89 67
20 11 9
32 28 27
24 14 15
177 61 6
207 80 2
190 67 2
201 69 5
204 71 4
168 57 5
176 61 2
207 74 4
194 63 3
209 73 2
149 54 4
51 25 21
183 36 14
207 23 0
171 9 20
155 145 46
209 174 6
40 61 86
40 74 101
64 80 93
197 122 70
234 145 78
153 104 66
33 66 94
34 54 65
172 40 5
199 61 7
188 0 0
146 119 77
177 87 52
208 36 0
193 17 0
198 66 34
197 204 166
208 210 180
226 229 203
223 224 192
223 223 191
219 222 197
218 221 201
214 218 196
223 222 195
143 170 135
67 145 120
81 149 125
92 161 136
103 173 141
94 109 77
29 16 13
20 19 24
55 25 15
200 71 6
203 73 2
200 76 3
209 81 3
207 71 3
174 61 4
179 65 3
207 77 4
199 67 4
196 63 2
173 60 15
186 14 5
222 103 22
159 61 39
171 154 28
109 107 58
18 60 102
38 74 100
50 73 93
182 110 62
229 144 79
213 135 73
71 83 92
41 45 57
193 76 4
210 95 10
199 60 28
106 164 124
138 92 61
200 26 3
177 32 10
180 142 108
220 227 201
225 224 198
223 225 201
223 226 202
216 219 195
217 223 202
209 213 190
189 194 161
225 227 202
173 186 155
73 145 118
80 152 128
90 158 133
96 166 134
103 172 134
78 92 60
52 36 21
18 32 30
77 47 27
187 64 2
209 85 2
212 99 3
209 91 4
203 70 3
179 58 3
174 55 3
195 68 4
196 66 3
190 71 2
167 39 8
205 45 4
172 50 35
155 150 57
73 87 104
44 77 106
73 86 93
80 74 64
177 116 65
221 141 75
229 143 72
93 87 77
43 44 54
195 63 2
205 83 5
144 115 71
84 160 120
90 150 115
95 133 102
90 146 117
101 160 126
196 204 177
223 226 206
206 211 189
219 222 203
195 200 176
192 199 177
211 215 192
168 173 139
210 215 189
201 203 178
109 160 128
74 149 124
89 159 136
94 166 134
115 175 140
105 184 145
156 138 81
144 5 0
89 31 18
141 60 19
202 66 5
200 80 2
206 95 3
199 87 4
190 64 3
177 55 2
175 51 3
188 64 3
196 72 3
181 73 7
204 34 4
176 56 30
93 111 94
50 75 101
52 81 105
140 109 75
212 142 78
190 129 69
193 129 69
217 138 68
104 96 83
63 54 55
188 22 0
188 76 22
101 140 105
101 161 118
112 166 126
87 158 124
85 152 122
84 148 113
167 193 162
207 208 187
177 184 155
206 209 183
182 187 165
170 177 150
206 210 186
174 182 157
205 211 189
215 215 193
151 171 135
85 156 129
89 160 135
95 166 133
107 173 141
109 148 114
170 111 64
201 24 2
204 51 9
191 57 7
200 50 14
194 52 9
197 71 7
206 91 7
195 75 3
198 74 3
196 75 4
181 55 3
189 60 3
193 77 4
